<?xml version="1.0" encoding="UTF-8" standalone="no"?>
<svg xmlns="http://www.w3.org/2000/svg" version="1.1" viewBox="308 266 396 108">
<path fill="#f0f0f5" d="
  M 596.05 328.03
  L 595.81 328.64
  A 1.84 1.84 0.0 0 1 595.41 329.24
  Q 590.45 334.25 585.26 339.04
  Q 584.78 339.48 582.50 342.18
  Q 581.06 343.88 579.25 344.84
  L 579.30 272.63
  A 2.57 2.56 -1.8 0 1 581.71 270.07
  Q 587.53 269.69 592.71 270.08
  C 596.37 270.36 595.97 273.46 595.97 276.63
  Q 595.95 302.33 596.05 328.03
  Z"
/>
<path fill="#f0f0f5" d="
  M 341.34 311.60
  Q 341.38 332.06 341.39 343.98
  C 341.39 347.98 342.55 354.90 347.49 355.68
  Q 353.25 356.58 357.38 354.44
  A 2.43 2.42 -18.7 0 1 360.89 356.17
  L 362.37 364.62
  A 1.64 1.63 -24.1 0 1 361.76 366.21
  C 357.32 369.63 351.19 370.16 345.71 370.04
  C 331.51 369.74 324.82 359.50 324.81 346.00
  Q 324.80 325.85 324.87 311.87
  A 0.73 0.73 0.0 0 0 324.11 311.14
  Q 317.87 311.33 314.89 311.09
  Q 312.71 310.92 312.48 308.21
  Q 312.35 306.67 312.40 300.32
  C 312.41 298.02 313.93 297.35 316.11 297.34
  Q 321.50 297.31 324.28 297.36
  A 0.74 0.74 0.0 0 0 325.03 296.62
  L 324.84 280.67
  A 2.32 2.19 57.4 0 1 325.00 279.83
  Q 325.96 277.47 329.06 277.56
  Q 330.22 277.59 338.26 277.56
  Q 341.43 277.54 341.39 280.97
  Q 341.30 291.16 341.35 296.83
  A 0.55 0.55 0.0 0 0 341.90 297.37
  L 357.63 297.37
  A 2.52 2.51 -3.3 0 1 360.13 299.59
  Q 360.35 301.49 360.35 307.40
  C 360.35 310.27 358.72 311.09 356.11 311.13
  Q 348.74 311.26 341.82 311.13
  A 0.47 0.47 0.0 0 0 341.34 311.60
  Z"
/>
<path fill="#f0f0f5" d="
  M 661.87 311.21
  Q 657.05 311.14 654.27 311.28
  C 651.53 311.41 650.43 310.27 650.44 307.44
  Q 650.46 304.32 650.45 300.52
  Q 650.45 297.59 653.01 297.47
  Q 658.18 297.23 661.78 297.38
  A 0.71 0.71 0.0 0 0 662.52 296.67
  Q 662.52 294.07 662.65 280.49
  Q 662.68 277.81 665.86 277.71
  Q 671.80 277.54 676.49 277.58
  Q 679.11 277.60 679.13 280.31
  Q 679.22 288.03 679.13 296.98
  A 0.42 0.42 0.0 0 0 679.55 297.41
  Q 685.68 297.38 695.04 297.36
  Q 697.58 297.36 697.79 299.48
  Q 698.27 304.25 697.90 308.48
  C 697.72 310.51 696.63 311.25 694.50 311.24
  Q 684.03 311.20 679.57 311.16
  A 0.46 0.46 0.0 0 0 679.11 311.63
  Q 679.30 327.28 679.33 346.28
  Q 679.33 346.65 680.13 350.12
  C 681.85 357.65 689.66 356.94 695.08 354.51
  A 2.34 2.34 0.0 0 1 698.35 356.24
  L 699.87 364.87
  A 1.79 1.78 72.0 0 1 698.90 366.78
  C 690.93 370.68 678.32 371.88 670.68 366.42
  C 664.36 361.90 662.47 355.57 662.50 347.76
  Q 662.61 320.77 662.57 311.91
  A 0.71 0.71 0.0 0 0 661.87 311.21
  Z"
/>
<path fill="#f0f0f5" d="
  M 392.43 308.97
  C 393.11 308.16 394.36 305.66 395.22 304.71
  Q 403.23 295.89 415.01 296.76
  A 2.05 2.05 0.0 0 1 416.91 298.76
  Q 417.06 305.52 416.82 308.80
  C 416.67 310.98 415.69 311.70 413.47 311.91
  Q 406.67 312.57 402.84 314.10
  C 395.09 317.18 392.24 325.70 392.34 333.52
  Q 392.58 353.72 392.40 366.00
  C 392.38 367.90 390.32 368.95 388.35 368.88
  Q 386.12 368.81 380.60 369.03
  C 376.97 369.18 374.95 368.63 375.03 364.51
  Q 375.17 357.56 375.26 300.54
  Q 375.27 298.88 376.97 297.72
  A 1.38 1.33 27.0 0 1 377.73 297.49
  L 389.03 297.49
  A 1.98 1.97 -18.1 0 1 390.62 298.29
  C 392.56 300.93 391.58 307.10 391.93 308.84
  A 0.29 0.28 59.2 0 0 392.43 308.97
  Z"
/>
<path fill="#f0f0f5" d="
  M 471.17 361.95
  C 463.93 368.95 454.25 370.74 444.12 369.85
  C 433.37 368.91 423.32 361.61 422.75 349.71
  Q 422.00 334.11 437.30 328.04
  Q 438.86 327.43 446.89 326.10
  Q 450.77 325.46 456.65 325.51
  Q 469.85 325.62 470.93 325.54
  A 0.63 0.63 0.0 0 0 471.52 324.92
  C 471.78 310.88 458.76 307.78 447.70 310.23
  Q 440.86 311.75 434.82 314.93
  A 1.92 1.91 -28.9 0 1 432.27 314.20
  L 427.21 305.43
  A 0.99 0.99 0.0 0 1 427.57 304.08
  Q 441.61 296.00 457.69 296.48
  Q 469.63 296.83 476.49 301.32
  C 485.88 307.46 488.66 318.26 488.60 329.26
  Q 488.52 343.64 488.61 365.75
  Q 488.61 367.63 486.58 368.70
  A 2.62 2.58 29.9 0 1 485.47 368.99
  Q 479.21 369.11 475.52 369.11
  C 472.08 369.11 471.83 364.57 471.79 362.20
  A 0.37 0.36 -22.8 0 0 471.17 361.95
  Z
  M 471.01 337.30
  Q 462.15 337.16 454.01 337.25
  C 448.64 337.32 443.20 337.79 440.38 342.46
  Q 438.80 345.08 439.27 349.25
  Q 439.99 355.51 447.00 357.24
  Q 451.92 358.45 457.24 357.71
  C 467.98 356.22 472.93 348.37 471.66 337.90
  A 0.68 0.66 87.0 0 0 471.01 337.30
  Z"
/>
<path fill="#f0f0f5" d="
  M 566.26 357.22
  Q 565.74 358.57 565.03 359.31
  Q 558.05 366.60 548.41 368.90
  Q 543.64 370.04 536.00 370.04
  C 520.41 370.06 506.57 361.23 501.60 346.20
  C 495.50 327.78 502.20 307.47 520.37 299.59
  C 530.24 295.30 544.79 295.06 555.03 300.26
  Q 560.95 303.27 565.28 307.73
  A 2.26 2.25 43.5 0 1 565.36 310.78
  C 562.52 314.07 560.17 317.78 557.43 318.22
  Q 556.37 318.39 554.16 316.54
  Q 545.78 309.53 534.47 310.68
  C 523.13 311.82 516.97 320.59 516.49 331.49
  C 515.88 345.52 524.71 356.68 538.97 356.13
  C 543.84 355.94 548.75 354.52 552.39 351.35
  Q 554.24 349.73 556.17 348.31
  A 2.00 2.00 0.0 0 1 558.78 348.51
  L 565.92 355.64
  A 1.51 1.48 33.4 0 1 566.26 357.22
  Z"
/>
<path fill="#16b4d2" d="
  M 618.51 327.09
  Q 616.03 330.64 611.41 335.34
  Q 608.91 337.89 606.89 338.65
  L 597.15 348.10
  A 2.79 2.78 -22.2 0 0 596.31 350.09
  L 596.31 365.91
  A 1.70 1.64 -33.3 0 1 596.15 366.62
  Q 595.43 368.12 594.34 368.85
  A 1.79 1.79 0.0 0 1 593.32 369.17
  L 581.75 369.17
  A 2.49 2.48 89.9 0 1 579.27 366.69
  L 579.25 344.84
  Q 581.06 343.88 582.50 342.18
  Q 584.78 339.48 585.26 339.04
  Q 590.45 334.25 595.41 329.24
  A 1.84 1.84 0.0 0 0 595.81 328.64
  L 596.05 328.03
  L 626.66 297.92
  A 1.21 1.19 22.2 0 1 627.51 297.57
  L 642.35 297.57
  A 0.77 0.77 0.0 0 1 643.10 298.15
  Q 643.84 301.07 642.84 302.08
  Q 630.46 314.62 618.51 327.09
  Z"
/>
<path fill="#5681d0" d="
  M 606.89 338.65
  Q 608.91 337.89 611.41 335.34
  Q 616.03 330.64 618.51 327.09
  Q 629.87 343.10 640.62 357.88
  Q 644.51 363.23 646.05 365.95
  Q 646.92 367.47 645.38 368.82
  A 1.32 1.31 24.5 0 1 644.52 369.14
  L 630.69 369.14
  A 2.64 2.64 0.0 0 1 628.57 368.07
  L 606.89 338.65
  Z"
/>
<path fill="#0a0a0f" d="
  M 471.66 337.90
  C 472.93 348.37 467.98 356.22 457.24 357.71
  Q 451.92 358.45 447.00 357.24
  Q 439.99 355.51 439.27 349.25
  Q 438.80 345.08 440.38 342.46
  C 443.20 337.79 448.64 337.32 454.01 337.25
  Q 462.15 337.16 471.01 337.30
  A 0.68 0.66 87.0 0 1 471.66 337.90
  Z"
/>
</svg>
